<svg width="380" height="74" viewBox="0 0 380 74" fill="none" xmlns="http://www.w3.org/2000/svg">
<path d="M11.4938 40.7188V59H5.525V14.9688H26.2438C31.2021 14.9688 35.025 16.0833 37.7125 18.3125C40.4208 20.5208 41.775 23.6042 41.775 27.5625C41.775 30.8333 40.8167 33.5833 38.9 35.8125C37.0042 38.0417 34.3792 39.4479 31.025 40.0312L43.525 59H36.65L25.2125 40.7188H11.4938ZM35.775 27.625C35.775 25.0625 34.9 23.1146 33.15 21.7812C31.4208 20.4271 28.9208 19.75 25.65 19.75H11.4938V36H25.9C29.0458 36 31.4729 35.2708 33.1813 33.8125C34.9104 32.3333 35.775 30.2708 35.775 27.625ZM58.35 43.2812C58.35 47.1562 59.1521 50.1458 60.7563 52.25C62.3604 54.3542 64.7042 55.4062 67.7875 55.4062C70.225 55.4062 72.1729 54.9167 73.6313 53.9375C75.1104 52.9583 76.1104 51.7188 76.6313 50.2188L81.5688 51.625C79.5479 56.9583 74.9542 59.625 67.7875 59.625C62.7875 59.625 58.975 58.1354 56.35 55.1562C53.7458 52.1771 52.4438 47.75 52.4438 41.875C52.4438 36.2917 53.7458 32.0104 56.35 29.0312C58.975 26.0521 62.7146 24.5625 67.5688 24.5625C72.5479 24.5625 76.2771 26.0625 78.7563 29.0625C81.2354 32.0625 82.475 36.5521 82.475 42.5312V43.2812H58.35ZM76.6625 38.9688C76.35 35.4062 75.4438 32.8125 73.9438 31.1875C72.4438 29.5417 70.2875 28.7188 67.475 28.7188C64.7458 28.7188 62.5792 29.6354 60.975 31.4688C59.3917 33.2812 58.5375 35.7812 58.4125 38.9688H76.6625ZM121.456 41.9375C121.456 47.8333 120.415 52.2604 118.331 55.2188C116.269 58.1562 113.165 59.625 109.019 59.625C103.81 59.625 100.31 57.6667 98.5188 53.75H98.3625C98.4458 53.8958 98.4875 55.6667 98.4875 59.0625V72.2812H92.8625V32.0938C92.8625 30.3646 92.8417 28.9271 92.8 27.7812C92.7792 26.6146 92.7375 25.75 92.675 25.1875H98.1125C98.1333 25.2708 98.1646 25.6771 98.2063 26.4062C98.2688 27.1354 98.3208 27.9271 98.3625 28.7812C98.4042 29.6146 98.425 30.2292 98.425 30.625H98.55C99.55 28.5417 100.873 27.0208 102.519 26.0625C104.165 25.0833 106.331 24.5938 109.019 24.5938C113.185 24.5938 116.3 25.9896 118.363 28.7812C120.425 31.5729 121.456 35.9583 121.456 41.9375ZM115.55 42.0625C115.55 37.3542 114.915 33.9896 113.644 31.9688C112.373 29.9479 110.352 28.9375 107.581 28.9375C104.498 28.9375 102.206 30.0104 100.706 32.1562C99.2271 34.2812 98.4875 37.7292 98.4875 42.5C98.4875 46.9375 99.1958 50.2083 100.613 52.3125C102.029 54.4167 104.331 55.4688 107.519 55.4688C110.31 55.4688 112.342 54.4479 113.613 52.4062C114.904 50.3438 115.55 46.8958 115.55 42.0625ZM160.281 42.0625C160.281 47.9792 158.979 52.3854 156.375 55.2812C153.771 58.1771 149.99 59.625 145.031 59.625C140.094 59.625 136.365 58.125 133.844 55.125C131.323 52.1042 130.062 47.75 130.062 42.0625C130.062 36.2292 131.323 31.8542 133.844 28.9375C136.385 26.0208 140.177 24.5625 145.219 24.5625C150.385 24.5625 154.188 25.9896 156.625 28.8438C159.062 31.6771 160.281 36.0833 160.281 42.0625ZM154.375 42.0625C154.375 37.3958 153.677 34.0104 152.281 31.9062C150.906 29.7812 148.583 28.7188 145.312 28.7188C142.021 28.7188 139.635 29.8021 138.156 31.9688C136.698 34.1146 135.969 37.4792 135.969 42.0625C135.969 46.5208 136.688 49.875 138.125 52.125C139.583 54.3542 141.865 55.4688 144.969 55.4688C148.344 55.4688 150.75 54.3854 152.188 52.2188C153.646 50.0521 154.375 46.6667 154.375 42.0625ZM176.263 41.375V59H170.638V33.0625C170.638 31.875 170.617 30.625 170.575 29.3125C170.554 28 170.513 26.625 170.45 25.1875H175.763C175.804 26.1458 175.835 27.0104 175.856 27.7812C175.898 28.5521 175.929 29.2292 175.95 29.8125C175.971 30.375 175.981 30.8542 175.981 31.25C176.002 31.625 176.013 31.9062 176.013 32.0938H176.138C176.763 30.0521 177.45 28.4688 178.2 27.3438C178.929 26.3021 179.763 25.5833 180.7 25.1875C181.638 24.7708 182.794 24.5625 184.169 24.5625C184.94 24.5625 185.7 24.6667 186.45 24.875V30.0312C185.742 29.8229 184.742 29.7188 183.45 29.7188C181.117 29.7188 179.335 30.7292 178.106 32.75C176.877 34.75 176.263 37.625 176.263 41.375ZM208.025 58.75C206.192 59.25 204.296 59.5 202.337 59.5C200.087 59.5 198.4 58.8646 197.275 57.5938C196.15 56.3021 195.587 54.3854 195.587 51.8438V29.2812H191.681V25.1875H195.806L197.462 17.625H201.212V25.1875H207.462V29.2812H201.212V50.625C201.212 52.25 201.473 53.3958 201.994 54.0625C202.535 54.7083 203.462 55.0312 204.775 55.0312C205.483 55.0312 206.567 54.8854 208.025 54.5938V58.75ZM241.413 49.6562C241.413 52.8438 240.204 55.3021 237.788 57.0312C235.392 58.7604 232.027 59.625 227.694 59.625C223.485 59.625 220.235 58.9375 217.944 57.5625C215.673 56.1667 214.194 54 213.506 51.0625L218.475 50.0938C218.954 51.9062 219.944 53.2396 221.444 54.0938C222.944 54.9271 225.027 55.3438 227.694 55.3438C230.548 55.3438 232.631 54.9062 233.944 54.0312C235.277 53.1562 235.944 51.8438 235.944 50.0938C235.944 48.7604 235.485 47.6771 234.569 46.8438C233.652 46.0104 232.173 45.3229 230.131 44.7812C227.715 44.1354 225.788 43.6042 224.35 43.1875C222.933 42.7708 221.84 42.4167 221.069 42.125C220.298 41.8125 219.683 41.5208 219.225 41.25C217.85 40.4583 216.777 39.4896 216.006 38.3438C215.235 37.1979 214.85 35.7917 214.85 34.125C214.85 31.0417 215.944 28.6979 218.131 27.0938C220.34 25.4688 223.548 24.6562 227.756 24.6562C231.485 24.6562 234.444 25.3125 236.631 26.625C238.84 27.9375 240.235 30.0417 240.819 32.9375L235.756 33.5625C235.444 32.0625 234.6 30.9167 233.225 30.125C231.871 29.3125 230.048 28.9062 227.756 28.9062C225.215 28.9062 223.34 29.2917 222.131 30.0625C220.923 30.8333 220.319 32 220.319 33.5625C220.319 34.7083 220.663 35.6562 221.35 36.4062C222.038 37.1354 223.35 37.7396 225.288 38.2188C227.892 38.8438 230.371 39.5312 232.725 40.2812C235.079 41.0104 236.767 41.7396 237.788 42.4688C238.975 43.3229 239.871 44.3333 240.475 45.5C241.1 46.6458 241.413 48.0312 241.413 49.6562Z" fill="white"/>
<path d="M259.469 49.4688V59H250.438V49.4688H259.469Z" fill="#2563EB"/>
<path d="M309.219 36.5312C309.219 41.1771 308.312 45.1771 306.5 48.5312C304.708 51.8854 302.198 54.4688 298.969 56.2812C295.76 58.0938 292.031 59 287.781 59H271.312V14.9688H285.875C293.333 14.9688 299.083 16.8438 303.125 20.5938C307.188 24.3229 309.219 29.6354 309.219 36.5312ZM303.219 36.5312C303.219 31.0729 301.719 26.9167 298.719 24.0625C295.74 21.1875 291.417 19.75 285.75 19.75H277.281V54.2188H287.094C290.365 54.2188 293.198 53.5 295.594 52.0625C298.01 50.625 299.885 48.5833 301.219 45.9375C302.552 43.2917 303.219 40.1562 303.219 36.5312ZM320.938 43.2812C320.938 47.1562 321.74 50.1458 323.344 52.25C324.948 54.3542 327.292 55.4062 330.375 55.4062C332.812 55.4062 334.76 54.9167 336.219 53.9375C337.698 52.9583 338.698 51.7188 339.219 50.2188L344.156 51.625C342.135 56.9583 337.542 59.625 330.375 59.625C325.375 59.625 321.562 58.1354 318.938 55.1562C316.333 52.1771 315.031 47.75 315.031 41.875C315.031 36.2917 316.333 32.0104 318.938 29.0312C321.562 26.0521 325.302 24.5625 330.156 24.5625C335.135 24.5625 338.865 26.0625 341.344 29.0625C343.823 32.0625 345.062 36.5521 345.062 42.5312V43.2812H320.938ZM339.25 38.9688C338.938 35.4062 338.031 32.8125 336.531 31.1875C335.031 29.5417 332.875 28.7188 330.062 28.7188C327.333 28.7188 325.167 29.6354 323.562 31.4688C321.979 33.2812 321.125 35.7812 321 38.9688H339.25ZM379.719 25.1875L367.094 59H360.438L348.156 25.1875H354.156L361.594 47.1875C361.74 47.6042 361.99 48.4375 362.344 49.6875C362.698 50.9167 363.167 52.5521 363.75 54.5938C364.021 53.7812 364.281 52.9375 364.531 52.0625C364.802 51.1667 365.062 50.3021 365.312 49.4688C365.583 48.6354 365.833 47.8958 366.062 47.25L373.75 25.1875H379.719Z" fill="#2563EB"/>
</svg>
